<svg width="11" height="13" viewBox="0 0 11 13" fill="none" xmlns="http://www.w3.org/2000/svg">
<path d="M7.08594 0C7.48371 4.00043e-05 7.86522 0.158184 8.14648 0.439453L10.5605 2.85352L10.6602 2.96387C10.8788 3.23073 11 3.56606 11 3.91406V11.5C11 12.3284 10.3284 13 9.5 13H1.5C0.671573 13 0 12.3284 0 11.5V1.5C1.61065e-08 0.671573 0.671573 0 1.5 0H7.08594ZM1.5 1C1.22386 1 1 1.22386 1 1.5V11.5C1 11.7761 1.22386 12 1.5 12H9.5C9.77614 12 10 11.7761 10 11.5V3.91406C9.99997 3.81464 9.97039 3.71823 9.91602 3.63672L9.85352 3.56055L7.43945 1.14648C7.34572 1.05275 7.21849 1.00004 7.08594 1H1.5ZM8.5 9C8.77614 9 9 9.22386 9 9.5C9 9.77614 8.77614 10 8.5 10H2.5C2.22386 10 2 9.77614 2 9.5C2 9.22386 2.22386 9 2.5 9H8.5ZM8.5 6C8.77614 6 9 6.22386 9 6.5C9 6.77614 8.77614 7 8.5 7H2.5C2.22386 7 2 6.77614 2 6.5C2 6.22386 2.22386 6 2.5 6H8.5ZM5.5 3C5.77614 3 6 3.22386 6 3.5C6 3.77614 5.77614 4 5.5 4H2.5C2.22386 4 2 3.77614 2 3.5C2 3.22386 2.22386 3 2.5 3H5.5Z" fill="black"/>
</svg>
